<mxfile host="app.diagrams.net" modified="2021-11-20T10:17:38.850Z" agent="5.0 (Windows NT 10.0; Win64; x64) AppleWebKit/537.36 (KHTML, like Gecko) Chrome/95.0.4638.69 Safari/537.36 Edg/95.0.1020.53" etag="0PR6MSacX6SGkm_JP72z" version="15.8.2" type="github">
  <diagram id="kIet36FPV8vF2llQRzNU" name="Page-1">
    <mxGraphModel dx="1483" dy="864" grid="1" gridSize="10" guides="1" tooltips="1" connect="1" arrows="1" fold="1" page="1" pageScale="1" pageWidth="3300" pageHeight="4681" math="0" shadow="0">
      <root>
        <mxCell id="0" />
        <mxCell id="1" parent="0" />
        <mxCell id="CG1419K2sjeTagmBYLUt-3" style="edgeStyle=orthogonalEdgeStyle;rounded=0;orthogonalLoop=1;jettySize=auto;html=1;exitX=0.5;exitY=1;exitDx=0;exitDy=0;entryX=0.5;entryY=0;entryDx=0;entryDy=0;" edge="1" parent="1" source="CG1419K2sjeTagmBYLUt-1" target="CG1419K2sjeTagmBYLUt-2">
          <mxGeometry relative="1" as="geometry" />
        </mxCell>
        <mxCell id="CG1419K2sjeTagmBYLUt-1" value="Begin" style="ellipse;whiteSpace=wrap;html=1;" vertex="1" parent="1">
          <mxGeometry x="470" y="100" width="120" height="80" as="geometry" />
        </mxCell>
        <mxCell id="CG1419K2sjeTagmBYLUt-7" style="edgeStyle=orthogonalEdgeStyle;rounded=0;orthogonalLoop=1;jettySize=auto;html=1;exitX=0.5;exitY=1;exitDx=0;exitDy=0;entryX=0.5;entryY=0;entryDx=0;entryDy=0;" edge="1" parent="1" source="CG1419K2sjeTagmBYLUt-2" target="CG1419K2sjeTagmBYLUt-4">
          <mxGeometry relative="1" as="geometry" />
        </mxCell>
        <mxCell id="CG1419K2sjeTagmBYLUt-2" value="Nhập tên đăng đăng nhập, mật khẩu" style="shape=parallelogram;perimeter=parallelogramPerimeter;whiteSpace=wrap;html=1;fixedSize=1;" vertex="1" parent="1">
          <mxGeometry x="460" y="250" width="140" height="60" as="geometry" />
        </mxCell>
        <mxCell id="CG1419K2sjeTagmBYLUt-6" style="edgeStyle=orthogonalEdgeStyle;rounded=0;orthogonalLoop=1;jettySize=auto;html=1;entryX=0.5;entryY=0;entryDx=0;entryDy=0;exitX=0.5;exitY=1;exitDx=0;exitDy=0;" edge="1" parent="1" source="CG1419K2sjeTagmBYLUt-4" target="CG1419K2sjeTagmBYLUt-5">
          <mxGeometry relative="1" as="geometry">
            <mxPoint x="530" y="460" as="sourcePoint" />
            <Array as="points" />
          </mxGeometry>
        </mxCell>
        <mxCell id="CG1419K2sjeTagmBYLUt-8" value="true" style="edgeLabel;html=1;align=center;verticalAlign=middle;resizable=0;points=[];" vertex="1" connectable="0" parent="CG1419K2sjeTagmBYLUt-6">
          <mxGeometry x="-0.244" y="-4" relative="1" as="geometry">
            <mxPoint as="offset" />
          </mxGeometry>
        </mxCell>
        <mxCell id="CG1419K2sjeTagmBYLUt-9" style="edgeStyle=orthogonalEdgeStyle;rounded=0;orthogonalLoop=1;jettySize=auto;html=1;exitX=0;exitY=0.5;exitDx=0;exitDy=0;entryX=0.5;entryY=1;entryDx=0;entryDy=0;" edge="1" parent="1" source="CG1419K2sjeTagmBYLUt-4" target="CG1419K2sjeTagmBYLUt-13">
          <mxGeometry relative="1" as="geometry">
            <Array as="points">
              <mxPoint x="340" y="405" />
            </Array>
          </mxGeometry>
        </mxCell>
        <mxCell id="CG1419K2sjeTagmBYLUt-10" value="false" style="edgeLabel;html=1;align=center;verticalAlign=middle;resizable=0;points=[];" vertex="1" connectable="0" parent="CG1419K2sjeTagmBYLUt-9">
          <mxGeometry x="0.0989" y="-3" relative="1" as="geometry">
            <mxPoint as="offset" />
          </mxGeometry>
        </mxCell>
        <mxCell id="CG1419K2sjeTagmBYLUt-4" value="Kiểm tra tk,mk" style="rhombus;whiteSpace=wrap;html=1;" vertex="1" parent="1">
          <mxGeometry x="485" y="360" width="90" height="90" as="geometry" />
        </mxCell>
        <mxCell id="CG1419K2sjeTagmBYLUt-12" style="edgeStyle=orthogonalEdgeStyle;rounded=0;orthogonalLoop=1;jettySize=auto;html=1;exitX=0.5;exitY=1;exitDx=0;exitDy=0;entryX=0.5;entryY=0;entryDx=0;entryDy=0;" edge="1" parent="1" source="CG1419K2sjeTagmBYLUt-5" target="CG1419K2sjeTagmBYLUt-11">
          <mxGeometry relative="1" as="geometry" />
        </mxCell>
        <mxCell id="CG1419K2sjeTagmBYLUt-5" value="Đăng nhập thành công" style="rounded=0;whiteSpace=wrap;html=1;" vertex="1" parent="1">
          <mxGeometry x="470" y="540" width="120" height="60" as="geometry" />
        </mxCell>
        <mxCell id="CG1419K2sjeTagmBYLUt-11" value="End" style="ellipse;whiteSpace=wrap;html=1;" vertex="1" parent="1">
          <mxGeometry x="470" y="680" width="120" height="80" as="geometry" />
        </mxCell>
        <mxCell id="CG1419K2sjeTagmBYLUt-14" style="edgeStyle=orthogonalEdgeStyle;rounded=0;orthogonalLoop=1;jettySize=auto;html=1;exitX=1;exitY=0.5;exitDx=0;exitDy=0;entryX=0;entryY=0.5;entryDx=0;entryDy=0;" edge="1" parent="1" source="CG1419K2sjeTagmBYLUt-13" target="CG1419K2sjeTagmBYLUt-2">
          <mxGeometry relative="1" as="geometry" />
        </mxCell>
        <mxCell id="CG1419K2sjeTagmBYLUt-13" value="Thông báo lỗi" style="rounded=0;whiteSpace=wrap;html=1;" vertex="1" parent="1">
          <mxGeometry x="280" y="250" width="120" height="60" as="geometry" />
        </mxCell>
        <mxCell id="CG1419K2sjeTagmBYLUt-18" style="edgeStyle=orthogonalEdgeStyle;rounded=0;orthogonalLoop=1;jettySize=auto;html=1;exitX=0.5;exitY=1;exitDx=0;exitDy=0;entryX=0.5;entryY=0;entryDx=0;entryDy=0;" edge="1" parent="1" source="CG1419K2sjeTagmBYLUt-15" target="CG1419K2sjeTagmBYLUt-16">
          <mxGeometry relative="1" as="geometry" />
        </mxCell>
        <mxCell id="CG1419K2sjeTagmBYLUt-15" value="Begin" style="ellipse;whiteSpace=wrap;html=1;" vertex="1" parent="1">
          <mxGeometry x="1050" y="100" width="120" height="80" as="geometry" />
        </mxCell>
        <mxCell id="CG1419K2sjeTagmBYLUt-19" style="edgeStyle=orthogonalEdgeStyle;rounded=0;orthogonalLoop=1;jettySize=auto;html=1;exitX=0.5;exitY=1;exitDx=0;exitDy=0;entryX=0.5;entryY=0;entryDx=0;entryDy=0;" edge="1" parent="1" source="CG1419K2sjeTagmBYLUt-16" target="CG1419K2sjeTagmBYLUt-17">
          <mxGeometry relative="1" as="geometry" />
        </mxCell>
        <mxCell id="CG1419K2sjeTagmBYLUt-16" value="Nhập mật khẩu cũ và mới và nhập xác nhận mật khẩu mới" style="shape=parallelogram;perimeter=parallelogramPerimeter;whiteSpace=wrap;html=1;fixedSize=1;" vertex="1" parent="1">
          <mxGeometry x="1020" y="240" width="180" height="60" as="geometry" />
        </mxCell>
        <mxCell id="CG1419K2sjeTagmBYLUt-21" style="edgeStyle=orthogonalEdgeStyle;rounded=0;orthogonalLoop=1;jettySize=auto;html=1;exitX=0.5;exitY=1;exitDx=0;exitDy=0;entryX=0.5;entryY=0;entryDx=0;entryDy=0;" edge="1" parent="1" source="CG1419K2sjeTagmBYLUt-17" target="CG1419K2sjeTagmBYLUt-20">
          <mxGeometry relative="1" as="geometry" />
        </mxCell>
        <mxCell id="CG1419K2sjeTagmBYLUt-23" value="True" style="edgeLabel;html=1;align=center;verticalAlign=middle;resizable=0;points=[];" vertex="1" connectable="0" parent="CG1419K2sjeTagmBYLUt-21">
          <mxGeometry x="-0.2062" y="1" relative="1" as="geometry">
            <mxPoint as="offset" />
          </mxGeometry>
        </mxCell>
        <mxCell id="CG1419K2sjeTagmBYLUt-24" style="edgeStyle=orthogonalEdgeStyle;rounded=0;orthogonalLoop=1;jettySize=auto;html=1;exitX=0;exitY=0.5;exitDx=0;exitDy=0;entryX=1;entryY=0.5;entryDx=0;entryDy=0;" edge="1" parent="1" source="CG1419K2sjeTagmBYLUt-17" target="CG1419K2sjeTagmBYLUt-25">
          <mxGeometry relative="1" as="geometry">
            <mxPoint x="1000" y="424.47058823529414" as="targetPoint" />
          </mxGeometry>
        </mxCell>
        <mxCell id="CG1419K2sjeTagmBYLUt-26" value="False" style="edgeLabel;html=1;align=center;verticalAlign=middle;resizable=0;points=[];" vertex="1" connectable="0" parent="CG1419K2sjeTagmBYLUt-24">
          <mxGeometry x="-0.3773" y="-1" relative="1" as="geometry">
            <mxPoint as="offset" />
          </mxGeometry>
        </mxCell>
        <mxCell id="CG1419K2sjeTagmBYLUt-17" value="Kiểm tra mật khẩu cũ" style="rhombus;whiteSpace=wrap;html=1;" vertex="1" parent="1">
          <mxGeometry x="1060" y="380" width="100" height="90" as="geometry" />
        </mxCell>
        <mxCell id="CG1419K2sjeTagmBYLUt-32" style="edgeStyle=orthogonalEdgeStyle;rounded=0;orthogonalLoop=1;jettySize=auto;html=1;exitX=0.5;exitY=1;exitDx=0;exitDy=0;entryX=0.5;entryY=0;entryDx=0;entryDy=0;startArrow=none;" edge="1" parent="1" source="CG1419K2sjeTagmBYLUt-33" target="CG1419K2sjeTagmBYLUt-28">
          <mxGeometry relative="1" as="geometry" />
        </mxCell>
        <mxCell id="CG1419K2sjeTagmBYLUt-38" style="edgeStyle=orthogonalEdgeStyle;rounded=0;orthogonalLoop=1;jettySize=auto;html=1;exitX=1;exitY=0.5;exitDx=0;exitDy=0;entryX=0;entryY=0.5;entryDx=0;entryDy=0;" edge="1" parent="1" source="CG1419K2sjeTagmBYLUt-20" target="CG1419K2sjeTagmBYLUt-37">
          <mxGeometry relative="1" as="geometry" />
        </mxCell>
        <mxCell id="CG1419K2sjeTagmBYLUt-39" value="False" style="edgeLabel;html=1;align=center;verticalAlign=middle;resizable=0;points=[];" vertex="1" connectable="0" parent="CG1419K2sjeTagmBYLUt-38">
          <mxGeometry x="0.22" y="-2" relative="1" as="geometry">
            <mxPoint as="offset" />
          </mxGeometry>
        </mxCell>
        <mxCell id="CG1419K2sjeTagmBYLUt-20" value="Kiểm tra mật khẩu mới" style="rhombus;whiteSpace=wrap;html=1;" vertex="1" parent="1">
          <mxGeometry x="1070" y="570" width="80" height="80" as="geometry" />
        </mxCell>
        <mxCell id="CG1419K2sjeTagmBYLUt-27" style="edgeStyle=orthogonalEdgeStyle;rounded=0;orthogonalLoop=1;jettySize=auto;html=1;exitX=0.5;exitY=0;exitDx=0;exitDy=0;entryX=0;entryY=0.5;entryDx=0;entryDy=0;" edge="1" parent="1" source="CG1419K2sjeTagmBYLUt-25" target="CG1419K2sjeTagmBYLUt-16">
          <mxGeometry relative="1" as="geometry">
            <Array as="points">
              <mxPoint x="860" y="270" />
            </Array>
          </mxGeometry>
        </mxCell>
        <mxCell id="CG1419K2sjeTagmBYLUt-25" value="Thông báo nhập sai mật khẩu cũ" style="rounded=0;whiteSpace=wrap;html=1;" vertex="1" parent="1">
          <mxGeometry x="800" y="395" width="120" height="60" as="geometry" />
        </mxCell>
        <mxCell id="CG1419K2sjeTagmBYLUt-36" style="edgeStyle=orthogonalEdgeStyle;rounded=0;orthogonalLoop=1;jettySize=auto;html=1;exitX=0.5;exitY=1;exitDx=0;exitDy=0;" edge="1" parent="1" source="CG1419K2sjeTagmBYLUt-28" target="CG1419K2sjeTagmBYLUt-35">
          <mxGeometry relative="1" as="geometry" />
        </mxCell>
        <mxCell id="CG1419K2sjeTagmBYLUt-28" value="gán mật khẩu cũ bằng mật khẩu mới" style="rounded=0;whiteSpace=wrap;html=1;" vertex="1" parent="1">
          <mxGeometry x="1050" y="730" width="120" height="60" as="geometry" />
        </mxCell>
        <mxCell id="CG1419K2sjeTagmBYLUt-33" value="True" style="text;html=1;align=center;verticalAlign=middle;resizable=0;points=[];autosize=1;strokeColor=none;fillColor=none;" vertex="1" parent="1">
          <mxGeometry x="1090" y="690" width="40" height="20" as="geometry" />
        </mxCell>
        <mxCell id="CG1419K2sjeTagmBYLUt-34" value="" style="edgeStyle=orthogonalEdgeStyle;rounded=0;orthogonalLoop=1;jettySize=auto;html=1;exitX=0.5;exitY=1;exitDx=0;exitDy=0;entryX=0.5;entryY=0;entryDx=0;entryDy=0;endArrow=none;" edge="1" parent="1" source="CG1419K2sjeTagmBYLUt-20" target="CG1419K2sjeTagmBYLUt-33">
          <mxGeometry relative="1" as="geometry">
            <mxPoint x="1110" y="650" as="sourcePoint" />
            <mxPoint x="1110" y="790" as="targetPoint" />
          </mxGeometry>
        </mxCell>
        <mxCell id="CG1419K2sjeTagmBYLUt-42" style="edgeStyle=orthogonalEdgeStyle;rounded=0;orthogonalLoop=1;jettySize=auto;html=1;exitX=0.5;exitY=1;exitDx=0;exitDy=0;entryX=0.5;entryY=0;entryDx=0;entryDy=0;" edge="1" parent="1" source="CG1419K2sjeTagmBYLUt-35" target="CG1419K2sjeTagmBYLUt-41">
          <mxGeometry relative="1" as="geometry" />
        </mxCell>
        <mxCell id="CG1419K2sjeTagmBYLUt-35" value="Thông báo đổi mật khẩu thành công" style="rounded=0;whiteSpace=wrap;html=1;" vertex="1" parent="1">
          <mxGeometry x="1050" y="860" width="120" height="60" as="geometry" />
        </mxCell>
        <mxCell id="CG1419K2sjeTagmBYLUt-40" style="edgeStyle=orthogonalEdgeStyle;rounded=0;orthogonalLoop=1;jettySize=auto;html=1;exitX=0.5;exitY=0;exitDx=0;exitDy=0;entryX=1;entryY=0.5;entryDx=0;entryDy=0;" edge="1" parent="1" source="CG1419K2sjeTagmBYLUt-37" target="CG1419K2sjeTagmBYLUt-16">
          <mxGeometry relative="1" as="geometry">
            <Array as="points">
              <mxPoint x="1310" y="270" />
            </Array>
          </mxGeometry>
        </mxCell>
        <mxCell id="CG1419K2sjeTagmBYLUt-37" value="Thông báo mật khẩu mới và mật khẩu xác nhận không trùng khớp" style="rounded=0;whiteSpace=wrap;html=1;" vertex="1" parent="1">
          <mxGeometry x="1250" y="580" width="120" height="60" as="geometry" />
        </mxCell>
        <mxCell id="CG1419K2sjeTagmBYLUt-41" value="End" style="ellipse;whiteSpace=wrap;html=1;" vertex="1" parent="1">
          <mxGeometry x="1050" y="1000" width="120" height="80" as="geometry" />
        </mxCell>
      </root>
    </mxGraphModel>
  </diagram>
</mxfile>
